<mxfile host="65bd71144e">
    <diagram name="Page-1" id="a8F7jJg699dGcDbAWTl5">
        <mxGraphModel dx="2985" dy="2143" grid="1" gridSize="10" guides="1" tooltips="1" connect="1" arrows="1" fold="1" page="1" pageScale="1" pageWidth="827" pageHeight="1169" math="0" shadow="0">
            <root>
                <mxCell id="0"/>
                <mxCell id="1" parent="0"/>
                <mxCell id="19" value="" style="rounded=0;whiteSpace=wrap;html=1;fillColor=none;strokeWidth=10;" vertex="1" parent="1">
                    <mxGeometry x="-10" width="1670" height="1170" as="geometry"/>
                </mxCell>
                <mxCell id="KP8LtkTHCNszyvqluSHY-103" value="" style="rounded=0;whiteSpace=wrap;html=1;strokeColor=none;fillColor=#fff2cc;fillStyle=hatch;" parent="1" vertex="1">
                    <mxGeometry x="320" y="981" width="1080" height="179" as="geometry"/>
                </mxCell>
                <mxCell id="KP8LtkTHCNszyvqluSHY-54" value="" style="rounded=0;whiteSpace=wrap;html=1;fillColor=#00CC00;strokeColor=none;fillStyle=hatch;opacity=30;" parent="1" vertex="1">
                    <mxGeometry width="1650" height="340" as="geometry"/>
                </mxCell>
                <mxCell id="KP8LtkTHCNszyvqluSHY-77" value="" style="rounded=1;whiteSpace=wrap;html=1;fillColor=#99FF33;fillStyle=hatch;" parent="1" vertex="1">
                    <mxGeometry x="1040" y="9" width="400" height="250" as="geometry"/>
                </mxCell>
                <mxCell id="KP8LtkTHCNszyvqluSHY-63" value="" style="rounded=0;whiteSpace=wrap;html=1;strokeColor=none;fillStyle=hatch;" parent="1" vertex="1">
                    <mxGeometry x="1400" y="980" width="250" height="180" as="geometry"/>
                </mxCell>
                <mxCell id="KP8LtkTHCNszyvqluSHY-62" value="" style="rounded=0;whiteSpace=wrap;html=1;strokeColor=none;fillStyle=hatch;" parent="1" vertex="1">
                    <mxGeometry x="1121" y="600" width="529" height="380" as="geometry"/>
                </mxCell>
                <mxCell id="KP8LtkTHCNszyvqluSHY-56" value="" style="ellipse;shape=cloud;whiteSpace=wrap;html=1;fillStyle=hatch;fillColor=#666666;" parent="1" vertex="1">
                    <mxGeometry x="1130" y="580" width="520" height="320" as="geometry"/>
                </mxCell>
                <mxCell id="KP8LtkTHCNszyvqluSHY-55" value="" style="rounded=0;whiteSpace=wrap;html=1;fillColor=#d5e8d4;strokeColor=none;fillStyle=hatch;" parent="1" vertex="1">
                    <mxGeometry x="0.5" y="340" width="409.5" height="210" as="geometry"/>
                </mxCell>
                <mxCell id="KP8LtkTHCNszyvqluSHY-53" value="" style="rounded=0;whiteSpace=wrap;html=1;fillColor=#dae8fc;strokeColor=none;fillStyle=hatch;glass=0;shadow=0;" parent="1" vertex="1">
                    <mxGeometry x="1121" y="340" width="529" height="260" as="geometry"/>
                </mxCell>
                <mxCell id="KP8LtkTHCNszyvqluSHY-12" value="" style="ellipse;whiteSpace=wrap;html=1;fillColor=none;rotation=15;" parent="1" vertex="1">
                    <mxGeometry x="25" y="252.29999999999998" width="330" height="155.41" as="geometry"/>
                </mxCell>
                <mxCell id="4mCQ5pcPBgcy5jRonQE--4" value="colors" style="ellipse;whiteSpace=wrap;html=1;fontFamily=Consolas;fontSize=16;" parent="1" vertex="1">
                    <mxGeometry x="1530" y="981" width="80" height="80" as="geometry"/>
                </mxCell>
                <mxCell id="4mCQ5pcPBgcy5jRonQE--5" value="Command&lt;br&gt;Line&lt;br&gt;Style" style="ellipse;whiteSpace=wrap;html=1;fontFamily=Consolas;fontSize=16;" parent="1" vertex="1">
                    <mxGeometry x="135" y="901" width="80" height="80" as="geometry"/>
                </mxCell>
                <mxCell id="4mCQ5pcPBgcy5jRonQE--6" value="db&lt;br&gt;(SQLite Database)" style="ellipse;whiteSpace=wrap;html=1;fontFamily=Consolas;fontSize=16;fillColor=#2174EF;fontColor=#ffffff;strokeColor=#001DBC;" parent="1" vertex="1">
                    <mxGeometry x="679" y="370" width="120" height="80" as="geometry"/>
                </mxCell>
                <mxCell id="43" style="edgeStyle=none;html=1;exitX=0;exitY=1;exitDx=0;exitDy=0;strokeWidth=4;fontFamily=Consolas;fontSize=22;" edge="1" parent="1" source="4mCQ5pcPBgcy5jRonQE--7" target="42">
                    <mxGeometry relative="1" as="geometry"/>
                </mxCell>
                <mxCell id="4mCQ5pcPBgcy5jRonQE--7" value="exe (entrance point)" style="ellipse;whiteSpace=wrap;html=1;fontFamily=Consolas;fontSize=16;" parent="1" vertex="1">
                    <mxGeometry x="120" y="675" width="110" height="80" as="geometry"/>
                </mxCell>
                <mxCell id="4mCQ5pcPBgcy5jRonQE--8" value="files" style="ellipse;whiteSpace=wrap;html=1;fontFamily=Consolas;fontSize=16;fillColor=#007FFF;strokeColor=#6c8ebf;" parent="1" vertex="1">
                    <mxGeometry x="1340" y="455" width="80" height="80" as="geometry"/>
                </mxCell>
                <mxCell id="4mCQ5pcPBgcy5jRonQE--9" value="files&lt;br&gt;cryptography" style="ellipse;whiteSpace=wrap;html=1;fontFamily=Consolas;fontSize=16;fillColor=#9999FF;strokeColor=#6c8ebf;" parent="1" vertex="1">
                    <mxGeometry x="1490" y="350" width="120" height="80" as="geometry"/>
                </mxCell>
                <mxCell id="4mCQ5pcPBgcy5jRonQE--10" value="global&lt;br&gt;stuff" style="ellipse;whiteSpace=wrap;html=1;fontFamily=Consolas;fontSize=16;" parent="1" vertex="1">
                    <mxGeometry x="1513" y="680" width="80" height="80" as="geometry"/>
                </mxCell>
                <mxCell id="4mCQ5pcPBgcy5jRonQE--11" value="hostify" style="ellipse;whiteSpace=wrap;html=1;fontFamily=Consolas;fontSize=16;fillColor=#FFF78C;strokeColor=#d79b00;" parent="1" vertex="1">
                    <mxGeometry x="220" y="960" width="80" height="80" as="geometry"/>
                </mxCell>
                <mxCell id="4mCQ5pcPBgcy5jRonQE--12" value="import_handler: ImportDefence" style="ellipse;whiteSpace=wrap;html=1;fontFamily=Consolas;fontSize=16;" parent="1" vertex="1">
                    <mxGeometry x="1311" y="650" width="160" height="80" as="geometry"/>
                </mxCell>
                <mxCell id="4mCQ5pcPBgcy5jRonQE--13" value="ipconfig" style="ellipse;whiteSpace=wrap;html=1;fontFamily=Consolas;fontSize=16;fillColor=#F01500;strokeColor=#B20000;fontColor=#000000;" parent="1" vertex="1">
                    <mxGeometry x="935.5" y="650" width="80" height="80" as="geometry"/>
                </mxCell>
                <mxCell id="4mCQ5pcPBgcy5jRonQE--14" value="ip&lt;br&gt;handler" style="ellipse;whiteSpace=wrap;html=1;fontFamily=Consolas;fontSize=16;gradientColor=#E51400;fillColor=#C056F5;" parent="1" vertex="1">
                    <mxGeometry x="1002.5" y="520" width="80" height="80" as="geometry"/>
                </mxCell>
                <mxCell id="4mCQ5pcPBgcy5jRonQE--15" value="Network&lt;br&gt;Storage" style="ellipse;whiteSpace=wrap;html=1;fontFamily=Consolas;fontSize=16;fillColor=#c056f5;strokeColor=#9673a6;" parent="1" vertex="1">
                    <mxGeometry x="852" y="405" width="80" height="80" as="geometry"/>
                </mxCell>
                <mxCell id="18" style="edgeStyle=none;html=1;exitX=0;exitY=0.5;exitDx=0;exitDy=0;fontSize=29;" parent="1" source="4mCQ5pcPBgcy5jRonQE--16" target="16" edge="1">
                    <mxGeometry relative="1" as="geometry"/>
                </mxCell>
                <mxCell id="4mCQ5pcPBgcy5jRonQE--16" value="Packet&lt;br&gt;Sniffer" style="ellipse;whiteSpace=wrap;html=1;fontFamily=Consolas;fontSize=16;fillColor=#C26336;fontColor=#000000;strokeColor=#6D1F00;" parent="1" vertex="1">
                    <mxGeometry x="1015.5" y="880" width="80" height="80" as="geometry"/>
                </mxCell>
                <mxCell id="4mCQ5pcPBgcy5jRonQE--18" value="Recommend&lt;br&gt;Probabilities&lt;br&gt;Primitive" style="ellipse;whiteSpace=wrap;html=1;fontFamily=Consolas;fontSize=16;" parent="1" vertex="1">
                    <mxGeometry x="1165" y="870" width="150" height="80" as="geometry"/>
                </mxCell>
                <mxCell id="9" style="edgeStyle=none;html=1;fontSize=29;" parent="1" source="4mCQ5pcPBgcy5jRonQE--19" target="8" edge="1">
                    <mxGeometry relative="1" as="geometry"/>
                </mxCell>
                <mxCell id="13" style="edgeStyle=none;html=1;fontSize=29;" parent="1" source="4mCQ5pcPBgcy5jRonQE--19" target="10" edge="1">
                    <mxGeometry relative="1" as="geometry"/>
                </mxCell>
                <mxCell id="14" style="edgeStyle=none;html=1;fontSize=29;" parent="1" source="4mCQ5pcPBgcy5jRonQE--19" target="11" edge="1">
                    <mxGeometry relative="1" as="geometry"/>
                </mxCell>
                <mxCell id="15" style="edgeStyle=none;html=1;fontSize=29;" parent="1" source="4mCQ5pcPBgcy5jRonQE--19" target="12" edge="1">
                    <mxGeometry relative="1" as="geometry"/>
                </mxCell>
                <mxCell id="4mCQ5pcPBgcy5jRonQE--19" value="register" style="ellipse;whiteSpace=wrap;html=1;fontFamily=Consolas;fontSize=16;fillColor=#fa6800;strokeColor=#C73500;fontColor=#000000;" parent="1" vertex="1">
                    <mxGeometry x="690" y="868" width="80" height="80" as="geometry"/>
                </mxCell>
                <mxCell id="4mCQ5pcPBgcy5jRonQE--20" value="ScanID" style="ellipse;whiteSpace=wrap;html=1;fontFamily=Consolas;fontSize=16;fillColor=#66B2FF;strokeColor=#6c8ebf;" parent="1" vertex="1">
                    <mxGeometry x="1214" y="346" width="80" height="80" as="geometry"/>
                </mxCell>
                <mxCell id="4mCQ5pcPBgcy5jRonQE--21" value="Simple&lt;br&gt;Scan" style="ellipse;whiteSpace=wrap;html=1;fontFamily=Consolas;fontSize=16;gradientColor=#FA6800;fillColor=#E51400;" parent="1" vertex="1">
                    <mxGeometry x="1010" y="757" width="80" height="80" as="geometry"/>
                </mxCell>
                <mxCell id="4mCQ5pcPBgcy5jRonQE--22" value="@threadify" style="ellipse;whiteSpace=wrap;html=1;fontFamily=Consolas;fontSize=16;fillColor=#FFF78C;strokeColor=#d79b00;" parent="1" vertex="1">
                    <mxGeometry x="170" y="1080" width="115" height="80" as="geometry"/>
                </mxCell>
                <mxCell id="4mCQ5pcPBgcy5jRonQE--23" value="Activation" style="ellipse;whiteSpace=wrap;html=1;fontFamily=Consolas;fontSize=16;fillColor=#00CC00;" parent="1" vertex="1">
                    <mxGeometry x="170" y="120" width="100" height="80" as="geometry"/>
                </mxCell>
                <mxCell id="4mCQ5pcPBgcy5jRonQE--24" value="App" style="ellipse;whiteSpace=wrap;html=1;fontFamily=Consolas;fontSize=16;fillColor=#00CC00;" parent="1" vertex="1">
                    <mxGeometry x="730" y="120" width="80" height="80" as="geometry"/>
                </mxCell>
                <mxCell id="4mCQ5pcPBgcy5jRonQE--25" value="AppState" style="ellipse;whiteSpace=wrap;html=1;fontFamily=Consolas;fontSize=16;fillColor=#00CC00;" parent="1" vertex="1">
                    <mxGeometry x="430" y="110" width="80" height="80" as="geometry"/>
                </mxCell>
                <mxCell id="4mCQ5pcPBgcy5jRonQE--26" value="Configuration" style="ellipse;whiteSpace=wrap;html=1;fontFamily=Consolas;fontSize=16;fillColor=#00CC00;" parent="1" vertex="1">
                    <mxGeometry x="707" y="252.3" width="120" height="80" as="geometry"/>
                </mxCell>
                <mxCell id="4mCQ5pcPBgcy5jRonQE--27" value="Diagrams" style="ellipse;whiteSpace=wrap;html=1;fontFamily=Consolas;fontSize=16;fillColor=#00CC00;" parent="1" vertex="1">
                    <mxGeometry x="384" y="217" width="80" height="80" as="geometry"/>
                </mxCell>
                <mxCell id="4mCQ5pcPBgcy5jRonQE--28" value="dialogs" style="ellipse;whiteSpace=wrap;html=1;fontFamily=Consolas;fontSize=16;fillColor=#66FF66;" parent="1" vertex="1">
                    <mxGeometry x="55" y="260" width="80" height="80" as="geometry"/>
                </mxCell>
                <mxCell id="4mCQ5pcPBgcy5jRonQE--29" value="Hover" style="ellipse;whiteSpace=wrap;html=1;fontFamily=Consolas;fontSize=16;fillColor=#00CC00;" parent="1" vertex="1">
                    <mxGeometry x="464" y="10" width="80" height="80" as="geometry"/>
                </mxCell>
                <mxCell id="4mCQ5pcPBgcy5jRonQE--30" value="Information" style="ellipse;whiteSpace=wrap;html=1;fontFamily=Consolas;fontSize=16;fillColor=#00CC00;" parent="1" vertex="1">
                    <mxGeometry x="890" y="250" width="105" height="80" as="geometry"/>
                </mxCell>
                <mxCell id="4mCQ5pcPBgcy5jRonQE--31" value="Kivy&lt;br&gt;Extensions" style="ellipse;whiteSpace=wrap;html=1;fontFamily=Consolas;fontSize=16;fillColor=#00CC00;" parent="1" vertex="1">
                    <mxGeometry x="680" y="20" width="100" height="80" as="geometry"/>
                </mxCell>
                <mxCell id="31" style="edgeStyle=none;html=1;strokeWidth=4;fontFamily=Consolas;fontSize=30;" edge="1" parent="1" source="27" target="4mCQ5pcPBgcy5jRonQE--32">
                    <mxGeometry relative="1" as="geometry"/>
                </mxCell>
                <mxCell id="4mCQ5pcPBgcy5jRonQE--32" value="Kivy&lt;br&gt;Fonts" style="ellipse;whiteSpace=wrap;html=1;fontFamily=Consolas;fontSize=16;fillColor=#66ffa2;" parent="1" vertex="1">
                    <mxGeometry x="150" y="290" width="80" height="80" as="geometry"/>
                </mxCell>
                <mxCell id="4mCQ5pcPBgcy5jRonQE--33" value="Scan&lt;br&gt;Classes" style="ellipse;whiteSpace=wrap;html=1;fontFamily=Consolas;fontSize=16;fillColor=#00CC00;" parent="1" vertex="1">
                    <mxGeometry x="230" y="30" width="80" height="80" as="geometry"/>
                </mxCell>
                <mxCell id="4mCQ5pcPBgcy5jRonQE--34" value="Start&lt;br&gt;App" style="ellipse;whiteSpace=wrap;html=1;fontFamily=Consolas;fontSize=16;fillColor=#66FF66;" parent="1" vertex="1">
                    <mxGeometry x="250" y="320" width="80" height="80" as="geometry"/>
                </mxCell>
                <mxCell id="4mCQ5pcPBgcy5jRonQE--36" value="Know&lt;br&gt;Screen" style="ellipse;whiteSpace=wrap;html=1;fontFamily=Consolas;fontSize=16;fillColor=#99FF33;" parent="1" vertex="1">
                    <mxGeometry x="1110" y="105" width="80" height="80" as="geometry"/>
                </mxCell>
                <mxCell id="4mCQ5pcPBgcy5jRonQE--37" value="Pages" style="ellipse;whiteSpace=wrap;html=1;fontFamily=Consolas;fontSize=16;fillColor=#99FF33;" parent="1" vertex="1">
                    <mxGeometry x="1351" y="170" width="80" height="80" as="geometry"/>
                </mxCell>
                <mxCell id="4mCQ5pcPBgcy5jRonQE--38" value="Save&lt;br&gt;Screen" style="ellipse;whiteSpace=wrap;html=1;fontFamily=Consolas;fontSize=16;fillColor=#99FF33;" parent="1" vertex="1">
                    <mxGeometry x="1047" y="13" width="80" height="80" as="geometry"/>
                </mxCell>
                <mxCell id="KP8LtkTHCNszyvqluSHY-105" style="edgeStyle=orthogonalEdgeStyle;rounded=0;orthogonalLoop=1;jettySize=auto;html=1;exitX=0;exitY=1;exitDx=0;exitDy=0;entryX=0.95;entryY=0.688;entryDx=0;entryDy=0;entryPerimeter=0;" parent="1" source="4mCQ5pcPBgcy5jRonQE--39" target="4mCQ5pcPBgcy5jRonQE--23" edge="1">
                    <mxGeometry relative="1" as="geometry">
                        <Array as="points">
                            <mxPoint x="630" y="241"/>
                            <mxPoint x="630" y="310"/>
                            <mxPoint x="350" y="310"/>
                            <mxPoint x="350" y="175"/>
                        </Array>
                    </mxGeometry>
                </mxCell>
                <mxCell id="4mCQ5pcPBgcy5jRonQE--39" value="Scan&lt;br&gt;Screen" style="ellipse;html=1;fontFamily=Consolas;fontSize=16;whiteSpace=wrap;fillColor=#99FF33;" parent="1" vertex="1">
                    <mxGeometry x="1161" y="172.3" width="80" height="80" as="geometry"/>
                </mxCell>
                <mxCell id="4mCQ5pcPBgcy5jRonQE--40" value="View&lt;br&gt;Screen" style="ellipse;whiteSpace=wrap;html=1;fontFamily=Consolas;fontSize=16;fillColor=#99FF33;" parent="1" vertex="1">
                    <mxGeometry x="1195" y="18" width="80" height="80" as="geometry"/>
                </mxCell>
                <mxCell id="4mCQ5pcPBgcy5jRonQE--45" value="Public&lt;br&gt;Address" style="ellipse;whiteSpace=wrap;html=1;fontFamily=Consolas;fontSize=16;fillColor=#e3c800;strokeColor=#B09500;fontColor=#000000;" parent="1" vertex="1">
                    <mxGeometry x="870" y="1070" width="80" height="80" as="geometry"/>
                </mxCell>
                <mxCell id="4mCQ5pcPBgcy5jRonQE--46" value="TCP" style="ellipse;whiteSpace=wrap;html=1;fontFamily=Consolas;fontSize=16;fillColor=#e3c800;strokeColor=#B09500;fontColor=#000000;" parent="1" vertex="1">
                    <mxGeometry x="770" y="1070" width="80" height="80" as="geometry"/>
                </mxCell>
                <mxCell id="4mCQ5pcPBgcy5jRonQE--47" value="Trace&lt;br&gt;Router" style="ellipse;whiteSpace=wrap;html=1;fontFamily=Consolas;fontSize=16;fillColor=#e3c800;strokeColor=#B09500;fontColor=#000000;" parent="1" vertex="1">
                    <mxGeometry x="680" y="1070" width="80" height="80" as="geometry"/>
                </mxCell>
                <mxCell id="4mCQ5pcPBgcy5jRonQE--49" value="testing.tests" style="ellipse;whiteSpace=wrap;html=1;fontFamily=Consolas;fontSize=16;fillColor=#D3D3D3;strokeColor=#23445d;" parent="1" vertex="1">
                    <mxGeometry y="900" width="120" height="80" as="geometry"/>
                </mxCell>
                <mxCell id="KP8LtkTHCNszyvqluSHY-2" value="" style="endArrow=classic;html=1;rounded=0;exitX=1;exitY=0.5;exitDx=0;exitDy=0;entryX=0;entryY=0.5;entryDx=0;entryDy=0;" parent="1" source="4mCQ5pcPBgcy5jRonQE--7" target="4mCQ5pcPBgcy5jRonQE--15" edge="1">
                    <mxGeometry width="50" height="50" relative="1" as="geometry">
                        <mxPoint x="90" y="720" as="sourcePoint"/>
                        <mxPoint x="140" y="670" as="targetPoint"/>
                    </mxGeometry>
                </mxCell>
                <mxCell id="KP8LtkTHCNszyvqluSHY-3" value="" style="endArrow=classic;html=1;rounded=0;exitX=0.5;exitY=1;exitDx=0;exitDy=0;entryX=0.5;entryY=0;entryDx=0;entryDy=0;" parent="1" source="4mCQ5pcPBgcy5jRonQE--7" target="4mCQ5pcPBgcy5jRonQE--5" edge="1">
                    <mxGeometry width="50" height="50" relative="1" as="geometry">
                        <mxPoint x="180" y="810" as="sourcePoint"/>
                        <mxPoint x="160" y="910" as="targetPoint"/>
                    </mxGeometry>
                </mxCell>
                <mxCell id="KP8LtkTHCNszyvqluSHY-4" value="" style="endArrow=classic;html=1;rounded=0;exitX=1;exitY=0.5;exitDx=0;exitDy=0;entryX=0;entryY=0.5;entryDx=0;entryDy=0;" parent="1" source="4mCQ5pcPBgcy5jRonQE--7" target="4mCQ5pcPBgcy5jRonQE--13" edge="1">
                    <mxGeometry width="50" height="50" relative="1" as="geometry">
                        <mxPoint x="110" y="680" as="sourcePoint"/>
                        <mxPoint x="160" y="630" as="targetPoint"/>
                    </mxGeometry>
                </mxCell>
                <mxCell id="KP8LtkTHCNszyvqluSHY-5" value="" style="endArrow=classic;html=1;rounded=0;exitX=0.358;exitY=0.982;exitDx=0;exitDy=0;entryX=0.5;entryY=0;entryDx=0;entryDy=0;exitPerimeter=0;" parent="1" source="4mCQ5pcPBgcy5jRonQE--7" target="4mCQ5pcPBgcy5jRonQE--49" edge="1">
                    <mxGeometry width="50" height="50" relative="1" as="geometry">
                        <mxPoint x="170" y="850" as="sourcePoint"/>
                        <mxPoint x="220" y="800" as="targetPoint"/>
                    </mxGeometry>
                </mxCell>
                <mxCell id="KP8LtkTHCNszyvqluSHY-7" value="G (Graph)" style="ellipse;whiteSpace=wrap;html=1;fontFamily=Consolas;fontSize=16;fillColor=#eacdf9;strokeColor=#9673a6;" parent="1" vertex="1">
                    <mxGeometry x="747" y="510" width="80" height="80" as="geometry"/>
                </mxCell>
                <mxCell id="KP8LtkTHCNszyvqluSHY-8" value="Register the Scans" style="endArrow=classic;html=1;rounded=0;exitX=1;exitY=0.5;exitDx=0;exitDy=0;entryX=0;entryY=0.5;entryDx=0;entryDy=0;fontSize=16;" parent="1" source="4mCQ5pcPBgcy5jRonQE--7" target="4mCQ5pcPBgcy5jRonQE--19" edge="1">
                    <mxGeometry x="0.5388" y="-1" width="50" height="50" relative="1" as="geometry">
                        <mxPoint x="50" y="630" as="sourcePoint"/>
                        <mxPoint x="100" y="580" as="targetPoint"/>
                        <mxPoint as="offset"/>
                    </mxGeometry>
                </mxCell>
                <mxCell id="KP8LtkTHCNszyvqluSHY-9" value="" style="endArrow=classic;html=1;rounded=0;exitX=0.5;exitY=0;exitDx=0;exitDy=0;entryX=0.5;entryY=1;entryDx=0;entryDy=0;" parent="1" source="4mCQ5pcPBgcy5jRonQE--7" target="4mCQ5pcPBgcy5jRonQE--28" edge="1">
                    <mxGeometry width="50" height="50" relative="1" as="geometry">
                        <mxPoint x="150" y="630" as="sourcePoint"/>
                        <mxPoint x="200" y="580" as="targetPoint"/>
                    </mxGeometry>
                </mxCell>
                <mxCell id="KP8LtkTHCNszyvqluSHY-10" value="&lt;font style=&quot;font-size: 22px;&quot;&gt;GUI Initialisation&lt;/font&gt;" style="endArrow=classic;html=1;rounded=0;exitX=0.5;exitY=0;exitDx=0;exitDy=0;verticalAlign=middle;entryX=0.286;entryY=0.956;entryDx=0;entryDy=0;entryPerimeter=0;" parent="1" source="4mCQ5pcPBgcy5jRonQE--7" target="4mCQ5pcPBgcy5jRonQE--32" edge="1">
                    <mxGeometry x="0.3038" y="1" width="50" height="50" relative="1" as="geometry">
                        <mxPoint x="170" y="670" as="sourcePoint"/>
                        <mxPoint x="170" y="370" as="targetPoint"/>
                        <mxPoint as="offset"/>
                    </mxGeometry>
                </mxCell>
                <mxCell id="KP8LtkTHCNszyvqluSHY-11" value="" style="endArrow=classic;html=1;rounded=0;exitX=0.5;exitY=0;exitDx=0;exitDy=0;entryX=0;entryY=1;entryDx=0;entryDy=0;" parent="1" source="4mCQ5pcPBgcy5jRonQE--7" target="4mCQ5pcPBgcy5jRonQE--34" edge="1">
                    <mxGeometry width="50" height="50" relative="1" as="geometry">
                        <mxPoint x="170" y="660" as="sourcePoint"/>
                        <mxPoint x="220" y="610" as="targetPoint"/>
                    </mxGeometry>
                </mxCell>
                <mxCell id="KP8LtkTHCNszyvqluSHY-16" value="" style="endArrow=classic;html=1;rounded=0;entryX=0.5;entryY=0;entryDx=0;entryDy=0;" parent="1" source="4mCQ5pcPBgcy5jRonQE--19" target="4mCQ5pcPBgcy5jRonQE--47" edge="1">
                    <mxGeometry width="50" height="50" relative="1" as="geometry">
                        <mxPoint x="150" y="240" as="sourcePoint"/>
                        <mxPoint x="200" y="190" as="targetPoint"/>
                    </mxGeometry>
                </mxCell>
                <mxCell id="KP8LtkTHCNszyvqluSHY-17" value="" style="endArrow=classic;html=1;rounded=0;entryX=0.5;entryY=0;entryDx=0;entryDy=0;" parent="1" source="4mCQ5pcPBgcy5jRonQE--19" target="4mCQ5pcPBgcy5jRonQE--46" edge="1">
                    <mxGeometry width="50" height="50" relative="1" as="geometry">
                        <mxPoint x="90" y="220" as="sourcePoint"/>
                        <mxPoint x="140" y="170" as="targetPoint"/>
                    </mxGeometry>
                </mxCell>
                <mxCell id="KP8LtkTHCNszyvqluSHY-18" value="" style="endArrow=classic;html=1;rounded=0;entryX=0.5;entryY=0;entryDx=0;entryDy=0;" parent="1" source="4mCQ5pcPBgcy5jRonQE--19" target="4mCQ5pcPBgcy5jRonQE--45" edge="1">
                    <mxGeometry width="50" height="50" relative="1" as="geometry">
                        <mxPoint x="730" y="780" as="sourcePoint"/>
                        <mxPoint x="220" y="200" as="targetPoint"/>
                    </mxGeometry>
                </mxCell>
                <mxCell id="KP8LtkTHCNszyvqluSHY-19" value="" style="endArrow=classic;html=1;rounded=0;" parent="1" source="4mCQ5pcPBgcy5jRonQE--19" target="7" edge="1">
                    <mxGeometry width="50" height="50" relative="1" as="geometry">
                        <mxPoint x="750" y="780" as="sourcePoint"/>
                        <mxPoint x="985.7157287525379" y="1071.7157287525379" as="targetPoint"/>
                    </mxGeometry>
                </mxCell>
                <mxCell id="KP8LtkTHCNszyvqluSHY-20" value="" style="endArrow=classic;html=1;rounded=0;" parent="1" source="4mCQ5pcPBgcy5jRonQE--19" target="5" edge="1">
                    <mxGeometry width="50" height="50" relative="1" as="geometry">
                        <mxPoint x="200" y="270" as="sourcePoint"/>
                        <mxPoint x="1201.7157287525379" y="1072.7157287525379" as="targetPoint"/>
                    </mxGeometry>
                </mxCell>
                <mxCell id="KP8LtkTHCNszyvqluSHY-21" value="" style="endArrow=classic;html=1;rounded=0;" parent="1" source="4mCQ5pcPBgcy5jRonQE--19" target="6" edge="1">
                    <mxGeometry width="50" height="50" relative="1" as="geometry">
                        <mxPoint x="160" y="320" as="sourcePoint"/>
                        <mxPoint x="1092.7157287525379" y="1071.7157287525379" as="targetPoint"/>
                    </mxGeometry>
                </mxCell>
                <mxCell id="KP8LtkTHCNszyvqluSHY-22" value="" style="endArrow=classic;html=1;rounded=0;exitX=1;exitY=0.5;exitDx=0;exitDy=0;entryX=0;entryY=1;entryDx=0;entryDy=0;" parent="1" source="4mCQ5pcPBgcy5jRonQE--8" target="4mCQ5pcPBgcy5jRonQE--9" edge="1">
                    <mxGeometry width="50" height="50" relative="1" as="geometry">
                        <mxPoint x="1470" y="530" as="sourcePoint"/>
                        <mxPoint x="1520" y="480" as="targetPoint"/>
                    </mxGeometry>
                </mxCell>
                <mxCell id="KP8LtkTHCNszyvqluSHY-23" value="" style="endArrow=classic;html=1;rounded=0;exitX=0;exitY=0;exitDx=0;exitDy=0;entryX=1;entryY=1;entryDx=0;entryDy=0;" parent="1" source="4mCQ5pcPBgcy5jRonQE--8" target="4mCQ5pcPBgcy5jRonQE--20" edge="1">
                    <mxGeometry width="50" height="50" relative="1" as="geometry">
                        <mxPoint x="1360" y="680" as="sourcePoint"/>
                        <mxPoint x="1410" y="630" as="targetPoint"/>
                    </mxGeometry>
                </mxCell>
                <mxCell id="KP8LtkTHCNszyvqluSHY-24" value="" style="endArrow=classic;html=1;rounded=0;exitX=0;exitY=0.5;exitDx=0;exitDy=0;entryX=1;entryY=0.5;entryDx=0;entryDy=0;" parent="1" source="4mCQ5pcPBgcy5jRonQE--8" target="4mCQ5pcPBgcy5jRonQE--15" edge="1">
                    <mxGeometry width="50" height="50" relative="1" as="geometry">
                        <mxPoint x="1280" y="610" as="sourcePoint"/>
                        <mxPoint x="1330" y="560" as="targetPoint"/>
                    </mxGeometry>
                </mxCell>
                <mxCell id="KP8LtkTHCNszyvqluSHY-27" value="&lt;font style=&quot;font-size: 16px;&quot;&gt;History of Scans&lt;/font&gt;" style="endArrow=classic;html=1;rounded=0;exitX=0;exitY=1;exitDx=0;exitDy=0;entryX=1;entryY=0;entryDx=0;entryDy=0;" parent="1" source="4mCQ5pcPBgcy5jRonQE--8" target="4mCQ5pcPBgcy5jRonQE--19" edge="1">
                    <mxGeometry x="0.6943" y="2" width="50" height="50" relative="1" as="geometry">
                        <mxPoint x="1200" y="600" as="sourcePoint"/>
                        <mxPoint x="1250" y="550" as="targetPoint"/>
                        <mxPoint as="offset"/>
                    </mxGeometry>
                </mxCell>
                <mxCell id="KP8LtkTHCNszyvqluSHY-29" value="" style="endArrow=classic;html=1;rounded=0;exitX=0.5;exitY=1;exitDx=0;exitDy=0;entryX=0.5;entryY=0;entryDx=0;entryDy=0;" parent="1" source="4mCQ5pcPBgcy5jRonQE--11" target="4mCQ5pcPBgcy5jRonQE--22" edge="1">
                    <mxGeometry width="50" height="50" relative="1" as="geometry">
                        <mxPoint x="206" y="1170" as="sourcePoint"/>
                        <mxPoint x="256" y="1120" as="targetPoint"/>
                    </mxGeometry>
                </mxCell>
                <mxCell id="KP8LtkTHCNszyvqluSHY-31" value="" style="endArrow=classic;html=1;rounded=0;exitX=0.5;exitY=1;exitDx=0;exitDy=0;entryX=1;entryY=0;entryDx=0;entryDy=0;" parent="1" source="4mCQ5pcPBgcy5jRonQE--14" target="4mCQ5pcPBgcy5jRonQE--13" edge="1">
                    <mxGeometry width="50" height="50" relative="1" as="geometry">
                        <mxPoint x="460" y="790" as="sourcePoint"/>
                        <mxPoint x="510" y="740" as="targetPoint"/>
                    </mxGeometry>
                </mxCell>
                <mxCell id="KP8LtkTHCNszyvqluSHY-39" value="" style="endArrow=classic;html=1;rounded=0;exitX=1;exitY=1;exitDx=0;exitDy=0;entryX=0;entryY=0;entryDx=0;entryDy=0;" parent="1" source="4mCQ5pcPBgcy5jRonQE--15" target="4mCQ5pcPBgcy5jRonQE--14" edge="1">
                    <mxGeometry width="50" height="50" relative="1" as="geometry">
                        <mxPoint x="410" y="660" as="sourcePoint"/>
                        <mxPoint x="460" y="610" as="targetPoint"/>
                    </mxGeometry>
                </mxCell>
                <mxCell id="KP8LtkTHCNszyvqluSHY-40" value="Cache&lt;br&gt;Decorators" style="ellipse;whiteSpace=wrap;html=1;fontFamily=Consolas;fontSize=16;" parent="1" vertex="1">
                    <mxGeometry x="1193" y="675" width="106.5" height="80" as="geometry"/>
                </mxCell>
                <mxCell id="KP8LtkTHCNszyvqluSHY-42" value="" style="endArrow=classic;html=1;rounded=0;exitX=0;exitY=1;exitDx=0;exitDy=0;entryX=1;entryY=0.5;entryDx=0;entryDy=0;" parent="1" source="4mCQ5pcPBgcy5jRonQE--20" target="4mCQ5pcPBgcy5jRonQE--13" edge="1">
                    <mxGeometry width="50" height="50" relative="1" as="geometry">
                        <mxPoint x="1110" y="780" as="sourcePoint"/>
                        <mxPoint x="1160" y="730" as="targetPoint"/>
                    </mxGeometry>
                </mxCell>
                <mxCell id="KP8LtkTHCNszyvqluSHY-44" value="" style="endArrow=classic;html=1;rounded=0;exitX=0.5;exitY=0;exitDx=0;exitDy=0;entryX=1;entryY=1;entryDx=0;entryDy=0;" parent="1" source="4mCQ5pcPBgcy5jRonQE--21" target="4mCQ5pcPBgcy5jRonQE--13" edge="1">
                    <mxGeometry width="50" height="50" relative="1" as="geometry">
                        <mxPoint x="700" y="840" as="sourcePoint"/>
                        <mxPoint x="750" y="790" as="targetPoint"/>
                    </mxGeometry>
                </mxCell>
                <mxCell id="KP8LtkTHCNszyvqluSHY-45" value="" style="endArrow=classic;html=1;rounded=0;exitX=1;exitY=0.5;exitDx=0;exitDy=0;entryX=0.5;entryY=1;entryDx=0;entryDy=0;" parent="1" source="4mCQ5pcPBgcy5jRonQE--19" target="4mCQ5pcPBgcy5jRonQE--21" edge="1">
                    <mxGeometry width="50" height="50" relative="1" as="geometry">
                        <mxPoint x="730" y="910" as="sourcePoint"/>
                        <mxPoint x="780" y="860" as="targetPoint"/>
                    </mxGeometry>
                </mxCell>
                <mxCell id="KP8LtkTHCNszyvqluSHY-46" value="" style="curved=1;endArrow=classic;html=1;rounded=0;exitX=0.5;exitY=0;exitDx=0;exitDy=0;entryX=1;entryY=0;entryDx=0;entryDy=0;" parent="1" source="4mCQ5pcPBgcy5jRonQE--34" target="4mCQ5pcPBgcy5jRonQE--28" edge="1">
                    <mxGeometry width="50" height="50" relative="1" as="geometry">
                        <mxPoint x="380" y="450" as="sourcePoint"/>
                        <mxPoint x="430" y="400" as="targetPoint"/>
                        <Array as="points">
                            <mxPoint x="220" y="270"/>
                        </Array>
                    </mxGeometry>
                </mxCell>
                <mxCell id="KP8LtkTHCNszyvqluSHY-47" value="" style="endArrow=classic;html=1;rounded=0;exitX=1;exitY=0;exitDx=0;exitDy=0;entryX=0;entryY=1;entryDx=0;entryDy=0;" parent="1" source="4mCQ5pcPBgcy5jRonQE--34" target="4mCQ5pcPBgcy5jRonQE--27" edge="1">
                    <mxGeometry width="50" height="50" relative="1" as="geometry">
                        <mxPoint x="360" y="320" as="sourcePoint"/>
                        <mxPoint x="410" y="270" as="targetPoint"/>
                    </mxGeometry>
                </mxCell>
                <mxCell id="KP8LtkTHCNszyvqluSHY-48" value="" style="endArrow=classic;html=1;rounded=0;exitX=1;exitY=0.5;exitDx=0;exitDy=0;entryX=0;entryY=1;entryDx=0;entryDy=0;" parent="1" source="4mCQ5pcPBgcy5jRonQE--34" target="4mCQ5pcPBgcy5jRonQE--24" edge="1">
                    <mxGeometry width="50" height="50" relative="1" as="geometry">
                        <mxPoint x="480" y="340" as="sourcePoint"/>
                        <mxPoint x="530" y="290" as="targetPoint"/>
                    </mxGeometry>
                </mxCell>
                <mxCell id="KP8LtkTHCNszyvqluSHY-49" value="" style="endArrow=none;html=1;rounded=0;edgeStyle=orthogonalEdgeStyle;" parent="1" edge="1">
                    <mxGeometry width="50" height="50" relative="1" as="geometry">
                        <mxPoint y="550" as="sourcePoint"/>
                        <mxPoint x="1650" y="340" as="targetPoint"/>
                        <Array as="points">
                            <mxPoint x="410" y="551"/>
                            <mxPoint x="410" y="340"/>
                            <mxPoint x="1646" y="340"/>
                        </Array>
                    </mxGeometry>
                </mxCell>
                <mxCell id="KP8LtkTHCNszyvqluSHY-50" value="GUI Land" style="text;html=1;strokeColor=#82b366;fillColor=#d5e8d4;align=center;verticalAlign=middle;whiteSpace=wrap;rounded=0;fontSize=40;" parent="1" vertex="1">
                    <mxGeometry x="1439.5" y="260" width="214" height="80" as="geometry"/>
                </mxCell>
                <mxCell id="KP8LtkTHCNszyvqluSHY-51" value="" style="endArrow=none;html=1;rounded=0;edgeStyle=orthogonalEdgeStyle;" parent="1" edge="1">
                    <mxGeometry width="50" height="50" relative="1" as="geometry">
                        <mxPoint x="1650" y="600" as="sourcePoint"/>
                        <mxPoint x="1120" y="340" as="targetPoint"/>
                    </mxGeometry>
                </mxCell>
                <mxCell id="KP8LtkTHCNszyvqluSHY-52" value="File System" style="text;html=1;strokeColor=#6c8ebf;fillColor=#dae8fc;align=center;verticalAlign=middle;whiteSpace=wrap;rounded=0;fontSize=40;" parent="1" vertex="1">
                    <mxGeometry x="1431" y="520" width="223" height="80" as="geometry"/>
                </mxCell>
                <mxCell id="KP8LtkTHCNszyvqluSHY-57" value="&lt;font style=&quot;font-size: 32px;&quot;&gt;Widely Used&lt;/font&gt;" style="text;html=1;strokeColor=#666666;fillColor=#f5f5f5;align=center;verticalAlign=middle;whiteSpace=wrap;rounded=0;fontSize=40;fontColor=#333333;" parent="1" vertex="1">
                    <mxGeometry x="1321" y="800" width="193" height="60" as="geometry"/>
                </mxCell>
                <mxCell id="KP8LtkTHCNszyvqluSHY-58" value="" style="endArrow=none;html=1;rounded=0;edgeStyle=orthogonalEdgeStyle;" parent="1" edge="1">
                    <mxGeometry width="50" height="50" relative="1" as="geometry">
                        <mxPoint x="1400" y="1160" as="sourcePoint"/>
                        <mxPoint x="1120" y="600" as="targetPoint"/>
                        <Array as="points">
                            <mxPoint x="1121" y="981"/>
                            <mxPoint x="1121" y="600"/>
                        </Array>
                    </mxGeometry>
                </mxCell>
                <mxCell id="KP8LtkTHCNszyvqluSHY-59" value="Others" style="text;html=1;align=center;verticalAlign=middle;whiteSpace=wrap;rounded=0;fontSize=40;fillColor=#FFFFFF;fontColor=#333333;strokeColor=#666666;" parent="1" vertex="1">
                    <mxGeometry x="1400" y="1080" width="150" height="80" as="geometry"/>
                </mxCell>
                <mxCell id="KP8LtkTHCNszyvqluSHY-66" value="" style="endArrow=classic;html=1;rounded=0;exitX=1;exitY=0.5;exitDx=0;exitDy=0;entryX=0;entryY=0.5;entryDx=0;entryDy=0;exitPerimeter=0;" parent="1" source="4mCQ5pcPBgcy5jRonQE--23" target="4mCQ5pcPBgcy5jRonQE--25" edge="1">
                    <mxGeometry width="50" height="50" relative="1" as="geometry">
                        <mxPoint x="390" y="280" as="sourcePoint"/>
                        <mxPoint x="440" y="230" as="targetPoint"/>
                    </mxGeometry>
                </mxCell>
                <mxCell id="KP8LtkTHCNszyvqluSHY-67" value="" style="endArrow=classic;html=1;rounded=0;exitX=0;exitY=1;exitDx=0;exitDy=0;entryX=0.768;entryY=0.075;entryDx=0;entryDy=0;entryPerimeter=0;" parent="1" source="4mCQ5pcPBgcy5jRonQE--23" target="4mCQ5pcPBgcy5jRonQE--28" edge="1">
                    <mxGeometry width="50" height="50" relative="1" as="geometry">
                        <mxPoint x="450" y="430" as="sourcePoint"/>
                        <mxPoint x="130" y="280" as="targetPoint"/>
                    </mxGeometry>
                </mxCell>
                <mxCell id="KP8LtkTHCNszyvqluSHY-68" value="" style="endArrow=classic;html=1;rounded=0;exitX=0.742;exitY=0.059;exitDx=0;exitDy=0;entryX=0.309;entryY=0.965;entryDx=0;entryDy=0;exitPerimeter=0;entryPerimeter=0;" parent="1" source="4mCQ5pcPBgcy5jRonQE--23" target="4mCQ5pcPBgcy5jRonQE--33" edge="1">
                    <mxGeometry width="50" height="50" relative="1" as="geometry">
                        <mxPoint x="160" y="320" as="sourcePoint"/>
                        <mxPoint x="210" y="270" as="targetPoint"/>
                    </mxGeometry>
                </mxCell>
                <mxCell id="KP8LtkTHCNszyvqluSHY-70" value="" style="endArrow=classic;html=1;rounded=0;exitX=1;exitY=1;exitDx=0;exitDy=0;entryX=0;entryY=0;entryDx=0;entryDy=0;" parent="1" source="4mCQ5pcPBgcy5jRonQE--23" target="4mCQ5pcPBgcy5jRonQE--19" edge="1">
                    <mxGeometry width="50" height="50" relative="1" as="geometry">
                        <mxPoint x="470" y="450" as="sourcePoint"/>
                        <mxPoint x="520" y="400" as="targetPoint"/>
                    </mxGeometry>
                </mxCell>
                <mxCell id="KP8LtkTHCNszyvqluSHY-72" value="&lt;font style=&quot;font-size: 16px;&quot;&gt;Execute the Scans&lt;/font&gt;" style="edgeLabel;html=1;align=center;verticalAlign=middle;resizable=0;points=[];" parent="KP8LtkTHCNszyvqluSHY-70" connectable="0" vertex="1">
                    <mxGeometry x="0.833" y="-4" relative="1" as="geometry">
                        <mxPoint as="offset"/>
                    </mxGeometry>
                </mxCell>
                <mxCell id="KP8LtkTHCNszyvqluSHY-73" value="" style="endArrow=classic;html=1;rounded=0;exitX=0;exitY=0.5;exitDx=0;exitDy=0;entryX=1;entryY=1;entryDx=0;entryDy=0;" parent="1" source="4mCQ5pcPBgcy5jRonQE--24" target="4mCQ5pcPBgcy5jRonQE--25" edge="1">
                    <mxGeometry width="50" height="50" relative="1" as="geometry">
                        <mxPoint x="500" y="460" as="sourcePoint"/>
                        <mxPoint x="550" y="410" as="targetPoint"/>
                    </mxGeometry>
                </mxCell>
                <mxCell id="KP8LtkTHCNszyvqluSHY-74" value="" style="endArrow=classic;html=1;rounded=0;exitX=0;exitY=0;exitDx=0;exitDy=0;entryX=1;entryY=1;entryDx=0;entryDy=0;" parent="1" source="4mCQ5pcPBgcy5jRonQE--24" target="4mCQ5pcPBgcy5jRonQE--29" edge="1">
                    <mxGeometry width="50" height="50" relative="1" as="geometry">
                        <mxPoint x="490" y="440" as="sourcePoint"/>
                        <mxPoint x="540" y="390" as="targetPoint"/>
                    </mxGeometry>
                </mxCell>
                <mxCell id="KP8LtkTHCNszyvqluSHY-78" value="" style="endArrow=classic;html=1;rounded=0;exitX=1;exitY=0.5;exitDx=0;exitDy=0;" parent="1" source="4mCQ5pcPBgcy5jRonQE--24" target="4mCQ5pcPBgcy5jRonQE--36" edge="1">
                    <mxGeometry width="50" height="50" relative="1" as="geometry">
                        <mxPoint x="580" y="440" as="sourcePoint"/>
                        <mxPoint x="630" y="390" as="targetPoint"/>
                    </mxGeometry>
                </mxCell>
                <mxCell id="KP8LtkTHCNszyvqluSHY-79" value="" style="endArrow=classic;html=1;rounded=0;exitX=1;exitY=1;exitDx=0;exitDy=0;entryX=0;entryY=0.5;entryDx=0;entryDy=0;" parent="1" source="4mCQ5pcPBgcy5jRonQE--24" target="4mCQ5pcPBgcy5jRonQE--39" edge="1">
                    <mxGeometry width="50" height="50" relative="1" as="geometry">
                        <mxPoint x="530" y="440" as="sourcePoint"/>
                        <mxPoint x="580" y="390" as="targetPoint"/>
                    </mxGeometry>
                </mxCell>
                <mxCell id="KP8LtkTHCNszyvqluSHY-80" value="" style="endArrow=classic;html=1;rounded=0;exitX=0.883;exitY=0.174;exitDx=0;exitDy=0;entryX=0;entryY=0.5;entryDx=0;entryDy=0;exitPerimeter=0;" parent="1" source="4mCQ5pcPBgcy5jRonQE--24" target="4mCQ5pcPBgcy5jRonQE--38" edge="1">
                    <mxGeometry width="50" height="50" relative="1" as="geometry">
                        <mxPoint x="570" y="410" as="sourcePoint"/>
                        <mxPoint x="620" y="360" as="targetPoint"/>
                    </mxGeometry>
                </mxCell>
                <mxCell id="KP8LtkTHCNszyvqluSHY-81" value="" style="endArrow=classic;html=1;rounded=0;exitX=0.947;exitY=0.281;exitDx=0;exitDy=0;exitPerimeter=0;entryX=0;entryY=1;entryDx=0;entryDy=0;" parent="1" source="4mCQ5pcPBgcy5jRonQE--24" target="4mCQ5pcPBgcy5jRonQE--40" edge="1">
                    <mxGeometry width="50" height="50" relative="1" as="geometry">
                        <mxPoint x="550" y="450" as="sourcePoint"/>
                        <mxPoint x="600" y="400" as="targetPoint"/>
                    </mxGeometry>
                </mxCell>
                <mxCell id="KP8LtkTHCNszyvqluSHY-82" value="" style="endArrow=classic;html=1;rounded=0;exitX=0;exitY=0;exitDx=0;exitDy=0;entryX=1;entryY=0.5;entryDx=0;entryDy=0;" parent="1" source="4mCQ5pcPBgcy5jRonQE--25" target="4mCQ5pcPBgcy5jRonQE--33" edge="1">
                    <mxGeometry width="50" height="50" relative="1" as="geometry">
                        <mxPoint x="290" y="90" as="sourcePoint"/>
                        <mxPoint x="340" y="40" as="targetPoint"/>
                    </mxGeometry>
                </mxCell>
                <mxCell id="KP8LtkTHCNszyvqluSHY-83" value="" style="endArrow=classic;html=1;rounded=0;exitX=1;exitY=0;exitDx=0;exitDy=0;entryX=0.349;entryY=0.983;entryDx=0;entryDy=0;entryPerimeter=0;" parent="1" source="4mCQ5pcPBgcy5jRonQE--25" target="4mCQ5pcPBgcy5jRonQE--29" edge="1">
                    <mxGeometry width="50" height="50" relative="1" as="geometry">
                        <mxPoint x="410" y="200" as="sourcePoint"/>
                        <mxPoint x="460" y="150" as="targetPoint"/>
                    </mxGeometry>
                </mxCell>
                <mxCell id="KP8LtkTHCNszyvqluSHY-84" value="" style="endArrow=classic;html=1;rounded=0;exitX=0;exitY=1;exitDx=0;exitDy=0;entryX=1;entryY=0;entryDx=0;entryDy=0;" parent="1" source="4mCQ5pcPBgcy5jRonQE--30" target="4mCQ5pcPBgcy5jRonQE--6" edge="1">
                    <mxGeometry width="50" height="50" relative="1" as="geometry">
                        <mxPoint x="880" y="450" as="sourcePoint"/>
                        <mxPoint x="930" y="400" as="targetPoint"/>
                    </mxGeometry>
                </mxCell>
                <mxCell id="KP8LtkTHCNszyvqluSHY-85" value="" style="endArrow=classic;html=1;rounded=0;exitX=0.5;exitY=1;exitDx=0;exitDy=0;entryX=0.5;entryY=0;entryDx=0;entryDy=0;" parent="1" source="4mCQ5pcPBgcy5jRonQE--30" target="4mCQ5pcPBgcy5jRonQE--13" edge="1">
                    <mxGeometry width="50" height="50" relative="1" as="geometry">
                        <mxPoint x="886" y="299" as="sourcePoint"/>
                        <mxPoint x="768" y="542" as="targetPoint"/>
                    </mxGeometry>
                </mxCell>
                <mxCell id="KP8LtkTHCNszyvqluSHY-86" value="" style="endArrow=classic;html=1;rounded=0;exitX=0;exitY=0.5;exitDx=0;exitDy=0;entryX=1;entryY=0.5;entryDx=0;entryDy=0;" parent="1" source="4mCQ5pcPBgcy5jRonQE--30" target="4mCQ5pcPBgcy5jRonQE--25" edge="1">
                    <mxGeometry width="50" height="50" relative="1" as="geometry">
                        <mxPoint x="860" y="300" as="sourcePoint"/>
                        <mxPoint x="910" y="250" as="targetPoint"/>
                    </mxGeometry>
                </mxCell>
                <mxCell id="KP8LtkTHCNszyvqluSHY-87" value="" style="endArrow=classic;html=1;rounded=0;exitX=0.272;exitY=0.947;exitDx=0;exitDy=0;exitPerimeter=0;entryX=1;entryY=0;entryDx=0;entryDy=0;" parent="1" source="4mCQ5pcPBgcy5jRonQE--30" target="4mCQ5pcPBgcy5jRonQE--15" edge="1">
                    <mxGeometry width="50" height="50" relative="1" as="geometry">
                        <mxPoint x="1000" y="450" as="sourcePoint"/>
                        <mxPoint x="1050" y="400" as="targetPoint"/>
                    </mxGeometry>
                </mxCell>
                <mxCell id="KP8LtkTHCNszyvqluSHY-88" value="" style="endArrow=classic;html=1;rounded=0;exitX=0;exitY=0.5;exitDx=0;exitDy=0;entryX=1;entryY=0.5;entryDx=0;entryDy=0;" parent="1" source="4mCQ5pcPBgcy5jRonQE--31" target="4mCQ5pcPBgcy5jRonQE--29" edge="1">
                    <mxGeometry width="50" height="50" relative="1" as="geometry">
                        <mxPoint x="580" y="410" as="sourcePoint"/>
                        <mxPoint x="630" y="360" as="targetPoint"/>
                    </mxGeometry>
                </mxCell>
                <mxCell id="KP8LtkTHCNszyvqluSHY-89" value="" style="endArrow=classic;html=1;rounded=0;exitX=0;exitY=1;exitDx=0;exitDy=0;entryX=1;entryY=0;entryDx=0;entryDy=0;" parent="1" source="4mCQ5pcPBgcy5jRonQE--31" target="4mCQ5pcPBgcy5jRonQE--27" edge="1">
                    <mxGeometry width="50" height="50" relative="1" as="geometry">
                        <mxPoint x="550" y="450" as="sourcePoint"/>
                        <mxPoint x="600" y="400" as="targetPoint"/>
                    </mxGeometry>
                </mxCell>
                <mxCell id="KP8LtkTHCNszyvqluSHY-90" value="" style="endArrow=classic;html=1;rounded=0;exitX=0.5;exitY=1;exitDx=0;exitDy=0;entryX=0.5;entryY=0;entryDx=0;entryDy=0;" parent="1" source="4mCQ5pcPBgcy5jRonQE--33" target="4mCQ5pcPBgcy5jRonQE--19" edge="1">
                    <mxGeometry width="50" height="50" relative="1" as="geometry">
                        <mxPoint x="500" y="430" as="sourcePoint"/>
                        <mxPoint x="550" y="380" as="targetPoint"/>
                    </mxGeometry>
                </mxCell>
                <mxCell id="KP8LtkTHCNszyvqluSHY-91" value="" style="endArrow=classic;html=1;rounded=0;exitX=1;exitY=0.5;exitDx=0;exitDy=0;entryX=0;entryY=0.5;entryDx=0;entryDy=0;" parent="1" source="4mCQ5pcPBgcy5jRonQE--38" target="4mCQ5pcPBgcy5jRonQE--40" edge="1">
                    <mxGeometry width="50" height="50" relative="1" as="geometry">
                        <mxPoint x="1090" y="30" as="sourcePoint"/>
                        <mxPoint x="1140" y="-20" as="targetPoint"/>
                    </mxGeometry>
                </mxCell>
                <mxCell id="KP8LtkTHCNszyvqluSHY-92" value="" style="endArrow=classic;html=1;rounded=0;exitX=1;exitY=1;exitDx=0;exitDy=0;entryX=0;entryY=0;entryDx=0;entryDy=0;" parent="1" source="4mCQ5pcPBgcy5jRonQE--40" target="4mCQ5pcPBgcy5jRonQE--37" edge="1">
                    <mxGeometry width="50" height="50" relative="1" as="geometry">
                        <mxPoint x="1290" y="80" as="sourcePoint"/>
                        <mxPoint x="1340" y="30" as="targetPoint"/>
                    </mxGeometry>
                </mxCell>
                <mxCell id="KP8LtkTHCNszyvqluSHY-93" value="" style="endArrow=classic;html=1;rounded=0;exitX=0.974;exitY=0.674;exitDx=0;exitDy=0;exitPerimeter=0;entryX=0;entryY=0.5;entryDx=0;entryDy=0;" parent="1" source="4mCQ5pcPBgcy5jRonQE--36" target="4mCQ5pcPBgcy5jRonQE--37" edge="1">
                    <mxGeometry width="50" height="50" relative="1" as="geometry">
                        <mxPoint x="1080" y="140" as="sourcePoint"/>
                        <mxPoint x="1130" y="90" as="targetPoint"/>
                    </mxGeometry>
                </mxCell>
                <mxCell id="KP8LtkTHCNszyvqluSHY-94" value="" style="endArrow=classic;html=1;rounded=0;exitX=1;exitY=1;exitDx=0;exitDy=0;entryX=0.05;entryY=0.288;entryDx=0;entryDy=0;entryPerimeter=0;" parent="1" source="4mCQ5pcPBgcy5jRonQE--38" target="4mCQ5pcPBgcy5jRonQE--37" edge="1">
                    <mxGeometry width="50" height="50" relative="1" as="geometry">
                        <mxPoint x="1200" y="190" as="sourcePoint"/>
                        <mxPoint x="1250" y="140" as="targetPoint"/>
                    </mxGeometry>
                </mxCell>
                <mxCell id="KP8LtkTHCNszyvqluSHY-95" value="" style="endArrow=classic;html=1;rounded=0;exitX=1;exitY=0.5;exitDx=0;exitDy=0;entryX=0;entryY=1;entryDx=0;entryDy=0;" parent="1" source="4mCQ5pcPBgcy5jRonQE--39" target="4mCQ5pcPBgcy5jRonQE--37" edge="1">
                    <mxGeometry width="50" height="50" relative="1" as="geometry">
                        <mxPoint x="1270" y="250" as="sourcePoint"/>
                        <mxPoint x="1320" y="200" as="targetPoint"/>
                    </mxGeometry>
                </mxCell>
                <mxCell id="KP8LtkTHCNszyvqluSHY-97" value="" style="curved=1;endArrow=classic;html=1;rounded=0;entryX=0.979;entryY=0.366;entryDx=0;entryDy=0;entryPerimeter=0;exitX=0.5;exitY=1;exitDx=0;exitDy=0;" parent="1" source="4mCQ5pcPBgcy5jRonQE--36" target="4mCQ5pcPBgcy5jRonQE--15" edge="1">
                    <mxGeometry width="50" height="50" relative="1" as="geometry">
                        <mxPoint x="1000" y="430" as="sourcePoint"/>
                        <mxPoint x="1050" y="380" as="targetPoint"/>
                        <Array as="points">
                            <mxPoint x="1110" y="470"/>
                        </Array>
                    </mxGeometry>
                </mxCell>
                <mxCell id="KP8LtkTHCNszyvqluSHY-98" value="" style="curved=1;endArrow=classic;html=1;rounded=0;entryX=0.005;entryY=0.405;entryDx=0;entryDy=0;entryPerimeter=0;exitX=0.5;exitY=1;exitDx=0;exitDy=0;" parent="1" source="4mCQ5pcPBgcy5jRonQE--38" target="4mCQ5pcPBgcy5jRonQE--8" edge="1">
                    <mxGeometry width="50" height="50" relative="1" as="geometry">
                        <mxPoint x="1099" y="108" as="sourcePoint"/>
                        <mxPoint x="778" y="469" as="targetPoint"/>
                        <Array as="points">
                            <mxPoint x="1080" y="460"/>
                        </Array>
                    </mxGeometry>
                </mxCell>
                <mxCell id="KP8LtkTHCNszyvqluSHY-100" value="" style="curved=1;endArrow=classic;html=1;rounded=0;exitX=0.5;exitY=1;exitDx=0;exitDy=0;entryX=0.5;entryY=1;entryDx=0;entryDy=0;" parent="1" source="4mCQ5pcPBgcy5jRonQE--37" target="4mCQ5pcPBgcy5jRonQE--25" edge="1">
                    <mxGeometry width="50" height="50" relative="1" as="geometry">
                        <mxPoint x="1220" y="350" as="sourcePoint"/>
                        <mxPoint x="1270" y="300" as="targetPoint"/>
                        <Array as="points">
                            <mxPoint x="1180" y="310"/>
                            <mxPoint x="860" y="210"/>
                            <mxPoint x="460" y="240"/>
                        </Array>
                    </mxGeometry>
                </mxCell>
                <mxCell id="KP8LtkTHCNszyvqluSHY-101" value="" style="endArrow=none;html=1;rounded=0;edgeStyle=orthogonalEdgeStyle;" parent="1" edge="1">
                    <mxGeometry width="50" height="50" relative="1" as="geometry">
                        <mxPoint x="320" y="1160" as="sourcePoint"/>
                        <mxPoint x="1121" y="981" as="targetPoint"/>
                        <Array as="points">
                            <mxPoint x="320" y="1160"/>
                            <mxPoint x="320" y="981"/>
                        </Array>
                    </mxGeometry>
                </mxCell>
                <mxCell id="KP8LtkTHCNszyvqluSHY-102" value="Scans" style="text;html=1;align=center;verticalAlign=middle;whiteSpace=wrap;rounded=0;fontSize=40;fillColor=#fff2cc;strokeColor=#d6b656;" parent="1" vertex="1">
                    <mxGeometry x="1250" y="981" width="150" height="80" as="geometry"/>
                </mxCell>
                <mxCell id="KP8LtkTHCNszyvqluSHY-104" value="" style="endArrow=classic;html=1;rounded=0;exitX=0.5;exitY=1;exitDx=0;exitDy=0;entryX=0.688;entryY=0.037;entryDx=0;entryDy=0;entryPerimeter=0;" parent="1" source="4mCQ5pcPBgcy5jRonQE--39" target="4mCQ5pcPBgcy5jRonQE--19" edge="1">
                    <mxGeometry width="50" height="50" relative="1" as="geometry">
                        <mxPoint x="1030" y="440" as="sourcePoint"/>
                        <mxPoint x="1080" y="390" as="targetPoint"/>
                    </mxGeometry>
                </mxCell>
                <mxCell id="KP8LtkTHCNszyvqluSHY-106" value="" style="endArrow=classic;html=1;rounded=0;entryX=1;entryY=0.5;entryDx=0;entryDy=0;" parent="1" source="KP8LtkTHCNszyvqluSHY-103" target="4mCQ5pcPBgcy5jRonQE--22" edge="1">
                    <mxGeometry width="50" height="50" relative="1" as="geometry">
                        <mxPoint x="520" y="1080" as="sourcePoint"/>
                        <mxPoint x="510" y="1040" as="targetPoint"/>
                    </mxGeometry>
                </mxCell>
                <mxCell id="KP8LtkTHCNszyvqluSHY-107" value="" style="endArrow=classic;html=1;rounded=0;entryX=1;entryY=0.5;entryDx=0;entryDy=0;" parent="1" source="KP8LtkTHCNszyvqluSHY-103" target="4mCQ5pcPBgcy5jRonQE--11" edge="1">
                    <mxGeometry width="50" height="50" relative="1" as="geometry">
                        <mxPoint x="520" y="1030" as="sourcePoint"/>
                        <mxPoint x="445" y="1090" as="targetPoint"/>
                    </mxGeometry>
                </mxCell>
                <mxCell id="KP8LtkTHCNszyvqluSHY-108" value="" style="endArrow=classic;html=1;rounded=0;exitX=0;exitY=1;exitDx=0;exitDy=0;entryX=1;entryY=0;entryDx=0;entryDy=0;" parent="1" source="4mCQ5pcPBgcy5jRonQE--15" target="KP8LtkTHCNszyvqluSHY-7" edge="1">
                    <mxGeometry width="50" height="50" relative="1" as="geometry">
                        <mxPoint x="860" y="620" as="sourcePoint"/>
                        <mxPoint x="910" y="570" as="targetPoint"/>
                    </mxGeometry>
                </mxCell>
                <mxCell id="KP8LtkTHCNszyvqluSHY-109" value="" style="endArrow=classic;html=1;rounded=0;exitX=0.699;exitY=0.961;exitDx=0;exitDy=0;exitPerimeter=0;entryX=0;entryY=0;entryDx=0;entryDy=0;" parent="1" source="4mCQ5pcPBgcy5jRonQE--15" target="4mCQ5pcPBgcy5jRonQE--13" edge="1">
                    <mxGeometry width="50" height="50" relative="1" as="geometry">
                        <mxPoint x="700" y="580" as="sourcePoint"/>
                        <mxPoint x="750" y="530" as="targetPoint"/>
                    </mxGeometry>
                </mxCell>
                <mxCell id="KP8LtkTHCNszyvqluSHY-110" value="" style="endArrow=classic;html=1;rounded=0;entryX=0.5;entryY=1;entryDx=0;entryDy=0;" parent="1" source="KP8LtkTHCNszyvqluSHY-103" target="4mCQ5pcPBgcy5jRonQE--15" edge="1">
                    <mxGeometry width="50" height="50" relative="1" as="geometry">
                        <mxPoint x="910" y="560" as="sourcePoint"/>
                        <mxPoint x="860" y="610" as="targetPoint"/>
                    </mxGeometry>
                </mxCell>
                <mxCell id="KP8LtkTHCNszyvqluSHY-111" value="" style="endArrow=classic;html=1;rounded=0;entryX=0.5;entryY=1;entryDx=0;entryDy=0;" parent="1" source="7" target="4mCQ5pcPBgcy5jRonQE--16" edge="1">
                    <mxGeometry width="50" height="50" relative="1" as="geometry">
                        <mxPoint x="1014" y="1060" as="sourcePoint"/>
                        <mxPoint x="1040" y="930" as="targetPoint"/>
                    </mxGeometry>
                </mxCell>
                <mxCell id="KP8LtkTHCNszyvqluSHY-112" value="" style="endArrow=classic;html=1;rounded=0;entryX=1;entryY=0.5;entryDx=0;entryDy=0;exitX=0;exitY=1;exitDx=0;exitDy=0;" parent="1" source="4mCQ5pcPBgcy5jRonQE--39" target="4mCQ5pcPBgcy5jRonQE--6" edge="1">
                    <mxGeometry width="50" height="50" relative="1" as="geometry">
                        <mxPoint x="820" y="440" as="sourcePoint"/>
                        <mxPoint x="870" y="390" as="targetPoint"/>
                    </mxGeometry>
                </mxCell>
                <mxCell id="KP8LtkTHCNszyvqluSHY-114" value="" style="endArrow=classic;html=1;rounded=0;exitX=1;exitY=0.5;exitDx=0;exitDy=0;entryX=0;entryY=0.5;entryDx=0;entryDy=0;" parent="1" source="4mCQ5pcPBgcy5jRonQE--7" target="KP8LtkTHCNszyvqluSHY-7" edge="1">
                    <mxGeometry width="50" height="50" relative="1" as="geometry">
                        <mxPoint x="360" y="700" as="sourcePoint"/>
                        <mxPoint x="410" y="650" as="targetPoint"/>
                    </mxGeometry>
                </mxCell>
                <mxCell id="KP8LtkTHCNszyvqluSHY-116" value="" style="shape=flexArrow;endArrow=classic;html=1;rounded=0;entryX=0;entryY=0.5;entryDx=0;entryDy=0;endWidth=40;endSize=7.447058823529412;exitX=1;exitY=0.5;exitDx=0;exitDy=0;strokeWidth=4;" parent="1" target="4mCQ5pcPBgcy5jRonQE--7" edge="1" source="20">
                    <mxGeometry width="50" height="50" relative="1" as="geometry">
                        <mxPoint y="715" as="sourcePoint"/>
                        <mxPoint x="70" y="690" as="targetPoint"/>
                    </mxGeometry>
                </mxCell>
                <mxCell id="KP8LtkTHCNszyvqluSHY-117" value="" style="endArrow=classic;html=1;rounded=0;entryX=0.046;entryY=0.718;entryDx=0;entryDy=0;entryPerimeter=0;" parent="1" source="5" target="4mCQ5pcPBgcy5jRonQE--4" edge="1">
                    <mxGeometry width="50" height="50" relative="1" as="geometry">
                        <mxPoint x="1270" y="1080" as="sourcePoint"/>
                        <mxPoint x="1370" y="1200" as="targetPoint"/>
                    </mxGeometry>
                </mxCell>
                <mxCell id="3" style="edgeStyle=none;html=1;" parent="1" source="2" target="4mCQ5pcPBgcy5jRonQE--37" edge="1">
                    <mxGeometry relative="1" as="geometry"/>
                </mxCell>
                <mxCell id="2" value="Start&lt;br&gt;Screen" style="ellipse;whiteSpace=wrap;html=1;fontFamily=Consolas;fontSize=16;fillColor=#99FF33;" parent="1" vertex="1">
                    <mxGeometry x="1345.5" y="13" width="80" height="80" as="geometry"/>
                </mxCell>
                <mxCell id="4" value="Scans &amp;amp; Analyses" style="text;html=1;align=center;verticalAlign=middle;whiteSpace=wrap;rounded=0;fontSize=29;fillColor=#e3c800;strokeColor=#B09500;fontColor=#000000;" parent="1" vertex="1">
                    <mxGeometry x="1160" y="981" width="240" height="80" as="geometry"/>
                </mxCell>
                <mxCell id="5" value="ICMP" style="ellipse;whiteSpace=wrap;html=1;fontFamily=Consolas;fontSize=16;fillColor=#e3c800;strokeColor=#B09500;fontColor=#000000;" parent="1" vertex="1">
                    <mxGeometry x="1219.5" y="1070" width="80" height="80" as="geometry"/>
                </mxCell>
                <mxCell id="17" style="edgeStyle=none;html=1;exitX=0;exitY=0;exitDx=0;exitDy=0;fontSize=29;" parent="1" source="6" target="16" edge="1">
                    <mxGeometry relative="1" as="geometry"/>
                </mxCell>
                <mxCell id="6" value="ARP" style="ellipse;whiteSpace=wrap;html=1;fontFamily=Consolas;fontSize=16;fillColor=#e3c800;strokeColor=#B09500;fontColor=#000000;" parent="1" vertex="1">
                    <mxGeometry x="967" y="1070" width="80" height="80" as="geometry"/>
                </mxCell>
                <mxCell id="7" value="OS_ID" style="ellipse;whiteSpace=wrap;html=1;fontFamily=Consolas;fontSize=16;fillColor=#e3c800;strokeColor=#B09500;fontColor=#000000;" parent="1" vertex="1">
                    <mxGeometry x="1070" y="1070" width="80" height="80" as="geometry"/>
                </mxCell>
                <mxCell id="8" value="Trace&lt;br&gt;Router" style="ellipse;whiteSpace=wrap;html=1;fontFamily=Consolas;fontSize=16;fillColor=#e3c800;strokeColor=#B09500;fontColor=#000000;" parent="1" vertex="1">
                    <mxGeometry x="590" y="1070" width="80" height="80" as="geometry"/>
                </mxCell>
                <mxCell id="10" value="Device Profile" style="ellipse;whiteSpace=wrap;html=1;fontFamily=Consolas;fontSize=16;fillColor=#e3c800;strokeColor=#B09500;fontColor=#000000;" parent="1" vertex="1">
                    <mxGeometry x="500" y="1070" width="80" height="80" as="geometry"/>
                </mxCell>
                <mxCell id="11" value="Vendor Mapping" style="ellipse;whiteSpace=wrap;html=1;fontFamily=Consolas;fontSize=16;fillColor=#e3c800;strokeColor=#B09500;fontColor=#000000;" parent="1" vertex="1">
                    <mxGeometry x="414" y="1070" width="80" height="80" as="geometry"/>
                </mxCell>
                <mxCell id="12" value="Log Packets" style="ellipse;whiteSpace=wrap;html=1;fontFamily=Consolas;fontSize=16;fillColor=#e3c800;strokeColor=#B09500;fontColor=#000000;" parent="1" vertex="1">
                    <mxGeometry x="325" y="1070" width="80" height="80" as="geometry"/>
                </mxCell>
                <mxCell id="16" value="Sniffer" style="ellipse;whiteSpace=wrap;html=1;fontFamily=Consolas;fontSize=16;fillColor=#C26336;fontColor=#000000;strokeColor=#6D1F00;" parent="1" vertex="1">
                    <mxGeometry x="915" y="887" width="80" height="80" as="geometry"/>
                </mxCell>
                <mxCell id="20" value="run.bat" style="rounded=1;whiteSpace=wrap;html=1;strokeWidth=2;fontFamily=Consolas;fontSize=24;" vertex="1" parent="1">
                    <mxGeometry x="-250" y="675" width="180" height="85" as="geometry"/>
                </mxCell>
                <mxCell id="22" style="edgeStyle=none;html=1;exitX=1;exitY=0.5;exitDx=0;exitDy=0;fontFamily=Consolas;fontSize=24;strokeWidth=4;" edge="1" parent="1" source="21" target="4mCQ5pcPBgcy5jRonQE--6">
                    <mxGeometry relative="1" as="geometry">
                        <Array as="points">
                            <mxPoint x="440" y="580"/>
                        </Array>
                    </mxGeometry>
                </mxCell>
                <mxCell id="21" value="refresh_db.bat" style="rounded=1;whiteSpace=wrap;html=1;strokeWidth=2;fontFamily=Consolas;fontSize=24;fillColor=#2174ef;" vertex="1" parent="1">
                    <mxGeometry x="-320" y="550" width="240" height="85" as="geometry"/>
                </mxCell>
                <mxCell id="24" style="edgeStyle=none;html=1;exitX=1;exitY=0.5;exitDx=0;exitDy=0;strokeWidth=4;fontFamily=Consolas;fontSize=24;" edge="1" parent="1" source="23" target="4mCQ5pcPBgcy5jRonQE--11">
                    <mxGeometry relative="1" as="geometry"/>
                </mxCell>
                <mxCell id="23" value="hostify.bat" style="rounded=1;whiteSpace=wrap;html=1;strokeWidth=2;fontFamily=Consolas;fontSize=24;fillColor=#fff78c;strokeColor=#1e1a1a;" vertex="1" parent="1">
                    <mxGeometry x="-250" y="995" width="180" height="85" as="geometry"/>
                </mxCell>
                <mxCell id="27" value="./fonts/" style="swimlane;fontStyle=0;childLayout=stackLayout;horizontal=1;startSize=30;horizontalStack=0;resizeParent=1;resizeParentMax=0;resizeLast=0;collapsible=1;marginBottom=0;whiteSpace=wrap;html=1;strokeColor=#1e1a1a;strokeWidth=2;fontFamily=Consolas;fontSize=28;fillColor=#66ffa2;swimlaneFillColor=none;" vertex="1" parent="1">
                    <mxGeometry x="-370" y="360" width="290" height="150" as="geometry"/>
                </mxCell>
                <mxCell id="28" value="&lt;font style=&quot;font-size: 22px;&quot;&gt;BainsleyBold.ttf&lt;/font&gt;" style="text;strokeColor=none;fillColor=none;align=left;verticalAlign=middle;spacingLeft=4;spacingRight=4;overflow=hidden;points=[[0,0.5],[1,0.5]];portConstraint=eastwest;rotatable=0;whiteSpace=wrap;html=1;strokeWidth=2;fontFamily=Consolas;fontSize=25;" vertex="1" parent="27">
                    <mxGeometry y="30" width="290" height="30" as="geometry"/>
                </mxCell>
                <mxCell id="29" value="&lt;font style=&quot;font-size: 22px;&quot;&gt;Consolas.ttf&lt;/font&gt;" style="text;strokeColor=none;fillColor=none;align=left;verticalAlign=middle;spacingLeft=4;spacingRight=4;overflow=hidden;points=[[0,0.5],[1,0.5]];portConstraint=eastwest;rotatable=0;whiteSpace=wrap;html=1;strokeWidth=2;fontFamily=Consolas;fontSize=25;" vertex="1" parent="27">
                    <mxGeometry y="60" width="290" height="30" as="geometry"/>
                </mxCell>
                <mxCell id="30" value="&lt;font style=&quot;font-size: 22px;&quot;&gt;Segoe UI Symbol.ttf&lt;/font&gt;" style="text;strokeColor=none;fillColor=none;align=left;verticalAlign=middle;spacingLeft=4;spacingRight=4;overflow=hidden;points=[[0,0.5],[1,0.5]];portConstraint=eastwest;rotatable=0;whiteSpace=wrap;html=1;strokeWidth=2;fontFamily=Consolas;fontSize=25;" vertex="1" parent="27">
                    <mxGeometry y="90" width="290" height="30" as="geometry"/>
                </mxCell>
                <mxCell id="32" value="&lt;font style=&quot;font-size: 22px;&quot;&gt;Symbola.ttf&lt;/font&gt;" style="text;strokeColor=none;fillColor=none;align=left;verticalAlign=middle;spacingLeft=4;spacingRight=4;overflow=hidden;points=[[0,0.5],[1,0.5]];portConstraint=eastwest;rotatable=0;whiteSpace=wrap;html=1;strokeWidth=2;fontFamily=Consolas;fontSize=25;" vertex="1" parent="27">
                    <mxGeometry y="120" width="290" height="30" as="geometry"/>
                </mxCell>
                <mxCell id="34" style="edgeStyle=none;html=1;strokeWidth=4;fontFamily=Consolas;fontSize=22;" edge="1" parent="1" source="33" target="4mCQ5pcPBgcy5jRonQE--28">
                    <mxGeometry relative="1" as="geometry"/>
                </mxCell>
                <mxCell id="33" value="popup_style.css" style="rounded=1;whiteSpace=wrap;html=1;strokeWidth=2;fontFamily=Consolas;fontSize=24;fillColor=#66ff66;" vertex="1" parent="1">
                    <mxGeometry x="-350" y="245" width="240" height="85" as="geometry"/>
                </mxCell>
                <mxCell id="35" value="&amp;nbsp; &amp;nbsp; __download_from_git.bat" style="rounded=1;whiteSpace=wrap;html=1;strokeWidth=2;fontFamily=Consolas;fontSize=24;fillColor=#832291;arcSize=26;verticalAlign=middle;" vertex="1" parent="1">
                    <mxGeometry x="1720" y="1020" width="370" height="85" as="geometry"/>
                </mxCell>
                <mxCell id="36" value="" style="shape=image;verticalLabelPosition=bottom;labelBackgroundColor=default;verticalAlign=top;aspect=fixed;imageAspect=0;image=https://upload.wikimedia.org/wikipedia/commons/thumb/a/ae/Github-desktop-logo-symbol.svg/1200px-Github-desktop-logo-symbol.svg.png;" vertex="1" parent="1">
                    <mxGeometry x="1728" y="1038" width="50" height="50" as="geometry"/>
                </mxCell>
                <mxCell id="38" style="edgeStyle=none;html=1;strokeWidth=4;fontFamily=Consolas;fontSize=22;" edge="1" parent="1" source="37" target="2">
                    <mxGeometry relative="1" as="geometry"/>
                </mxCell>
                <mxCell id="37" value="background.png" style="rounded=1;whiteSpace=wrap;html=1;strokeWidth=2;fontFamily=Consolas;fontSize=24;fillColor=#99ff33;" vertex="1" parent="1">
                    <mxGeometry x="1127" y="-190" width="240" height="85" as="geometry"/>
                </mxCell>
                <mxCell id="40" style="edgeStyle=none;html=1;strokeWidth=4;fontFamily=Consolas;fontSize=22;" edge="1" parent="1" source="39" target="4mCQ5pcPBgcy5jRonQE--24">
                    <mxGeometry relative="1" as="geometry"/>
                </mxCell>
                <mxCell id="41" style="edgeStyle=none;html=1;strokeWidth=4;fontFamily=Consolas;fontSize=22;" edge="1" parent="1" source="39" target="2">
                    <mxGeometry relative="1" as="geometry"/>
                </mxCell>
                <mxCell id="39" value="favicon.png&lt;br&gt;favicon.ico" style="rounded=1;whiteSpace=wrap;html=1;strokeWidth=2;fontFamily=Consolas;fontSize=24;fillColor=#99ff33;" vertex="1" parent="1">
                    <mxGeometry x="799" y="-150" width="240" height="85" as="geometry"/>
                </mxCell>
                <mxCell id="42" value="error log.txt" style="rounded=1;whiteSpace=wrap;html=1;strokeWidth=2;fontFamily=Consolas;fontSize=24;fillColor=#8A0F0F;" vertex="1" parent="1">
                    <mxGeometry x="-320" y="800" width="240" height="85" as="geometry"/>
                </mxCell>
                <mxCell id="44" value="kivy" style="shape=hexagon;perimeter=hexagonPerimeter2;whiteSpace=wrap;html=1;fixedSize=1;strokeColor=#1e1a1a;strokeWidth=2;fontFamily=Consolas;fontSize=51;fillColor=#00cc00;size=40;" vertex="1" parent="1">
                    <mxGeometry x="270" y="-190" width="230" height="120" as="geometry"/>
                </mxCell>
                <mxCell id="45" value="PyQt5" style="shape=hexagon;perimeter=hexagonPerimeter2;whiteSpace=wrap;html=1;fixedSize=1;strokeColor=#1e1a1a;strokeWidth=2;fontFamily=Consolas;fontSize=25;fillColor=#66ff66;size=40;" vertex="1" parent="1">
                    <mxGeometry x="-280" y="80" width="150" height="75" as="geometry"/>
                </mxCell>
                <mxCell id="46" value="PySimpleGUIQt" style="shape=hexagon;perimeter=hexagonPerimeter2;whiteSpace=wrap;html=1;fixedSize=1;strokeColor=#1e1a1a;strokeWidth=2;fontFamily=Consolas;fontSize=25;fillColor=#66ff66;size=40;" vertex="1" parent="1">
                    <mxGeometry x="-330" y="160" width="250" height="75" as="geometry"/>
                </mxCell>
                <mxCell id="47" value="PyWin32" style="shape=hexagon;perimeter=hexagonPerimeter2;whiteSpace=wrap;html=1;fixedSize=1;strokeColor=#1e1a1a;strokeWidth=2;fontFamily=Consolas;fontSize=25;fillColor=#66ff66;size=40;" vertex="1" parent="1">
                    <mxGeometry x="-280" width="150" height="75" as="geometry"/>
                </mxCell>
                <mxCell id="48" value="io" style="shape=hexagon;perimeter=hexagonPerimeter2;whiteSpace=wrap;html=1;fixedSize=1;strokeColor=#1e1a1a;strokeWidth=2;fontFamily=Consolas;fontSize=25;fillColor=#18141d;size=20;" vertex="1" parent="1">
                    <mxGeometry x="1700" y="655" width="90" height="75" as="geometry"/>
                </mxCell>
                <mxCell id="50" value="tkinter" style="shape=hexagon;perimeter=hexagonPerimeter2;whiteSpace=wrap;html=1;fixedSize=1;strokeColor=#1e1a1a;strokeWidth=2;fontFamily=Consolas;fontSize=25;fillColor=#00cc00;size=40;gradientColor=#66ff66;gradientDirection=west;" vertex="1" parent="1">
                    <mxGeometry x="-30" y="-90" width="150" height="75" as="geometry"/>
                </mxCell>
                <mxCell id="51" value="scapy" style="shape=hexagon;perimeter=hexagonPerimeter2;whiteSpace=wrap;html=1;fixedSize=1;strokeColor=#1e1a1a;strokeWidth=2;fontFamily=Consolas;fontSize=51;fillColor=#e3c800;size=40;" vertex="1" parent="1">
                    <mxGeometry x="900" y="1190" width="230" height="120" as="geometry"/>
                </mxCell>
                <mxCell id="52" value="Crypto" style="shape=hexagon;perimeter=hexagonPerimeter2;whiteSpace=wrap;html=1;fixedSize=1;strokeColor=#1e1a1a;strokeWidth=2;fontFamily=Consolas;fontSize=25;fillColor=#9999ff;size=20;" vertex="1" parent="1">
                    <mxGeometry x="1690" y="340" width="140" height="75" as="geometry"/>
                </mxCell>
                <mxCell id="53" value="networkx" style="shape=hexagon;perimeter=hexagonPerimeter2;whiteSpace=wrap;html=1;fixedSize=1;strokeColor=#1e1a1a;strokeWidth=2;fontFamily=Consolas;fontSize=25;fillColor=#eacdf9;size=20;" vertex="1" parent="1">
                    <mxGeometry x="1690" y="515" width="140" height="75" as="geometry"/>
                </mxCell>
                <mxCell id="54" value="threading" style="shape=hexagon;perimeter=hexagonPerimeter2;whiteSpace=wrap;html=1;fixedSize=1;strokeColor=#1e1a1a;strokeWidth=2;fontFamily=Consolas;fontSize=38;fillColor=#fff78c;size=40;" vertex="1" parent="1">
                    <mxGeometry x="112.5" y="1190" width="230" height="100" as="geometry"/>
                </mxCell>
                <mxCell id="55" value="sqlite3" style="shape=hexagon;perimeter=hexagonPerimeter2;whiteSpace=wrap;html=1;fixedSize=1;strokeColor=#1e1a1a;strokeWidth=2;fontFamily=Consolas;fontSize=25;fillColor=#2174ef;size=20;" vertex="1" parent="1">
                    <mxGeometry x="-470" y="550" width="140" height="75" as="geometry"/>
                </mxCell>
                <mxCell id="57" value="mac_vendors.db" style="shape=datastore;whiteSpace=wrap;html=1;strokeColor=#1e1a1a;strokeWidth=2;fontFamily=Consolas;fontSize=38;fillColor=#e3c800;gradientColor=none;gradientDirection=west;" vertex="1" parent="1">
                    <mxGeometry x="394" y="1220" width="353" height="120" as="geometry"/>
                </mxCell>
                <mxCell id="58" value="packets.db" style="shape=datastore;whiteSpace=wrap;html=1;strokeColor=#1e1a1a;strokeWidth=2;fontFamily=Consolas;fontSize=38;fillColor=#c26336;gradientColor=none;gradientDirection=west;" vertex="1" parent="1">
                    <mxGeometry x="1190" y="1220" width="353" height="120" as="geometry"/>
                </mxCell>
                <mxCell id="59" value="scans.db" style="shape=datastore;whiteSpace=wrap;html=1;strokeColor=#1e1a1a;strokeWidth=2;fontFamily=Consolas;fontSize=38;fillColor=#2174ef;gradientColor=none;gradientDirection=west;" vertex="1" parent="1">
                    <mxGeometry x="-533" y="640" width="203" height="120" as="geometry"/>
                </mxCell>
            </root>
        </mxGraphModel>
    </diagram>
</mxfile>
